# xmcd
#
# Track frame offsets:
#	150
#	18704
#	43121
#	62977
#	78754
#	97289
#	128882
#	148770
#	171153
#	191234
#	204501
#
# Disc length: 3105 seconds
#
# Revision: 0
# Processed by: cddbd v1.5.2PL0 Copyright (c) Steve Scherf et al.
# Submitted via: EZCDAudioConverter 7.1.5.1
#
DISCID=a70c1f0b
DTITLE=The Bluesbones - Chasing Shadows 
DYEAR=2018
DGENRE=Blues Rock
TTITLE0=Find My Way Out
TTITLE1=Going Down
TTITLE2=Demon Blues
TTITLE3=A Better Life
TTITLE4=Love Me Or Leave Me
TTITLE5=Sealed Souls
TTITLE6=Romance For Rent
TTITLE7=Psycho Mind
TTITLE8=Betrayal
TTITLE9=Seesaw Blues
TTITLE10=The End
EXTD=
EXTT0=
EXTT1=
EXTT2=
EXTT3=
EXTT4=
EXTT5=
EXTT6=
EXTT7=
EXTT8=
EXTT9=
EXTT10=
PLAYORDER=
